<svg width="43" height="29" viewBox="0 0 43 29" fill="none" xmlns="http://www.w3.org/2000/svg">
<path fill-rule="evenodd" clip-rule="evenodd" d="M4.06396 25.7392C4.06396 25.3978 4.34206 25.121 4.68511 25.121H41.8632C42.2062 25.121 42.4843 25.3978 42.4843 25.7392V28.3819C42.4843 28.7233 42.2062 29 41.8632 29H4.68511C4.34206 29 4.06396 28.7233 4.06396 28.3819V25.7392ZM5.30626 26.3573V27.7638H41.242V26.3573H5.30626Z" fill="white"/>
<path fill-rule="evenodd" clip-rule="evenodd" d="M4.06396 19.0895C4.06396 18.7481 4.34206 18.4713 4.68511 18.4713H41.8632C42.2062 18.4713 42.4843 18.7481 42.4843 19.0895V21.7322C42.4843 22.0736 42.2062 22.3503 41.8632 22.3503H12.6518C12.3088 22.3503 12.0307 22.0736 12.0307 21.7322C12.0307 21.3908 12.3088 21.114 12.6518 21.114H41.242V19.7076H5.30626V21.114H9.99627C10.3393 21.114 10.6174 21.3908 10.6174 21.7322C10.6174 22.0736 10.3393 22.3503 9.99627 22.3503H4.68511C4.34206 22.3503 4.06396 22.0736 4.06396 21.7322V19.0895Z" fill="white"/>
<path fill-rule="evenodd" clip-rule="evenodd" d="M4.71046 21.242C5.06751 21.242 5.35696 21.5173 5.35696 21.8568V25.7992C5.35696 26.1388 5.06751 26.414 4.71046 26.414C4.35341 26.414 4.06396 26.1388 4.06396 25.7992V21.8568C4.06396 21.5173 4.35341 21.242 4.71046 21.242Z" fill="white"/>
<path fill-rule="evenodd" clip-rule="evenodd" d="M8.68158 21.242C8.98762 21.242 9.23572 21.5173 9.23572 21.8568V25.7992C9.23572 26.1388 8.98762 26.414 8.68158 26.414C8.37554 26.414 8.12744 26.1388 8.12744 25.7992V21.8568C8.12744 21.5173 8.37554 21.242 8.68158 21.242Z" fill="white"/>
<path fill-rule="evenodd" clip-rule="evenodd" d="M37.8662 21.242C38.1722 21.242 38.4203 21.5173 38.4203 21.8568V25.7992C38.4203 26.1388 38.1722 26.414 37.8662 26.414C37.5601 26.414 37.312 26.1388 37.312 25.7992V21.8568C37.312 21.5173 37.5601 21.242 37.8662 21.242Z" fill="white"/>
<path fill-rule="evenodd" clip-rule="evenodd" d="M41.8379 21.242C42.195 21.242 42.4844 21.5173 42.4844 21.8568V25.7992C42.4844 26.1388 42.195 26.414 41.8379 26.414C41.4809 26.414 41.1914 26.1388 41.1914 25.7992V21.8568C41.1914 21.5173 41.4809 21.242 41.8379 21.242Z" fill="white"/>
<path fill-rule="evenodd" clip-rule="evenodd" d="M21.3345 21.242C21.6915 21.242 21.981 21.5173 21.981 21.8568V25.7992C21.981 26.1388 21.6915 26.414 21.3345 26.414C20.9774 26.414 20.688 26.1388 20.688 25.7992V21.8568C20.688 21.5173 20.9774 21.242 21.3345 21.242Z" fill="white"/>
<path fill-rule="evenodd" clip-rule="evenodd" d="M25.2134 21.242C25.5704 21.242 25.8599 21.5173 25.8599 21.8568V25.7992C25.8599 26.1388 25.5704 26.414 25.2134 26.414C24.8563 26.414 24.5669 26.1388 24.5669 25.7992V21.8568C24.5669 21.5173 24.8563 21.242 25.2134 21.242Z" fill="white"/>
<path fill-rule="evenodd" clip-rule="evenodd" d="M2.77051 7.11253C2.77051 6.75489 3.04861 6.46497 3.39166 6.46497H40.5697C40.9128 6.46497 41.1909 6.75489 41.1909 7.11253V9.88109C41.1909 10.2387 40.9128 10.5287 40.5697 10.5287H3.39166C3.04861 10.5287 2.77051 10.2387 2.77051 9.88109V7.11253ZM4.01281 7.7601V9.23353H39.9486V7.7601H4.01281Z" fill="white"/>
<path fill-rule="evenodd" clip-rule="evenodd" d="M2.77051 0.618132C2.77051 0.276747 3.04861 0 3.39166 0H40.5697C40.9128 0 41.1909 0.276747 41.1909 0.618132V3.26085C41.1909 3.60223 40.9128 3.87898 40.5697 3.87898H35.2586C34.9155 3.87898 34.6374 3.60223 34.6374 3.26085C34.6374 2.91946 34.9155 2.64272 35.2586 2.64272H39.9486V1.23626H4.01281V2.64272H32.603C32.946 2.64272 33.2241 2.91946 33.2241 3.26085C33.2241 3.60223 32.946 3.87898 32.603 3.87898H3.39166C3.04861 3.87898 2.77051 3.60223 2.77051 3.26085V0.618132Z" fill="white"/>
<path fill-rule="evenodd" clip-rule="evenodd" d="M3.417 2.586C3.77406 2.586 4.0635 2.86124 4.0635 3.20076V7.14321C4.0635 7.48273 3.77406 7.75797 3.417 7.75797C3.05995 7.75797 2.77051 7.48273 2.77051 7.14321V3.20076C2.77051 2.86124 3.05995 2.586 3.417 2.586Z" fill="white"/>
<path fill-rule="evenodd" clip-rule="evenodd" d="M7.2964 2.586C7.65345 2.586 7.9429 2.86124 7.9429 3.20076V7.14321C7.9429 7.48273 7.65345 7.75797 7.2964 7.75797C6.93935 7.75797 6.6499 7.48273 6.6499 7.14321V3.20076C6.6499 2.86124 6.93935 2.586 7.2964 2.586Z" fill="white"/>
<path fill-rule="evenodd" clip-rule="evenodd" d="M36.5732 2.586C36.8792 2.586 37.1273 2.86124 37.1273 3.20076V7.14321C37.1273 7.48273 36.8792 7.75797 36.5732 7.75797C36.2671 7.75797 36.019 7.48273 36.019 7.14321V3.20076C36.019 2.86124 36.2671 2.586 36.5732 2.586Z" fill="white"/>
<path fill-rule="evenodd" clip-rule="evenodd" d="M40.5444 2.586C40.9015 2.586 41.1909 2.86124 41.1909 3.20076V7.14321C41.1909 7.48273 40.9015 7.75797 40.5444 7.75797C40.1874 7.75797 39.8979 7.48273 39.8979 7.14321V3.20076C39.8979 2.86124 40.1874 2.586 40.5444 2.586Z" fill="white"/>
<path fill-rule="evenodd" clip-rule="evenodd" d="M19.9492 2.586C20.2552 2.586 20.5033 2.86124 20.5033 3.20076V7.14321C20.5033 7.48273 20.2552 7.75797 19.9492 7.75797C19.6431 7.75797 19.395 7.48273 19.395 7.14321V3.20076C19.395 2.86124 19.6431 2.586 19.9492 2.586Z" fill="white"/>
<path fill-rule="evenodd" clip-rule="evenodd" d="M23.9204 2.586C24.2775 2.586 24.5669 2.86124 24.5669 3.20076V7.14321C24.5669 7.48273 24.2775 7.75797 23.9204 7.75797C23.5634 7.75797 23.2739 7.48273 23.2739 7.14321V3.20076C23.2739 2.86124 23.5634 2.586 23.9204 2.586Z" fill="white"/>
<path fill-rule="evenodd" clip-rule="evenodd" d="M0 16.5035C0 16.1621 0.278098 15.8853 0.621149 15.8853H37.7992C38.1423 15.8853 38.4204 16.1621 38.4204 16.5035V19.1462C38.4204 19.4876 38.1423 19.7643 37.7992 19.7643H0.621149C0.278098 19.7643 0 19.4876 0 19.1462V16.5035ZM1.2423 17.1216V18.5281H37.1781V17.1216H1.2423Z" fill="white"/>
<path fill-rule="evenodd" clip-rule="evenodd" d="M0 9.85382C0 9.51243 0.278098 9.23569 0.621149 9.23569H37.7992C38.1423 9.23569 38.4204 9.51243 38.4204 9.85382V12.4965C38.4204 12.8379 38.1423 13.1147 37.7992 13.1147H0.621149C0.278098 13.1147 0 12.8379 0 12.4965V9.85382ZM1.2423 10.472V11.8784H37.1781V10.472H1.2423Z" fill="white"/>
<path fill-rule="evenodd" clip-rule="evenodd" d="M0.646497 11.8217C1.00355 11.8217 1.29299 12.0969 1.29299 12.4364V16.3789C1.29299 16.7184 1.00355 16.9936 0.646497 16.9936C0.289446 16.9936 0 16.7184 0 16.3789V12.4364C0 12.0969 0.289446 11.8217 0.646497 11.8217Z" fill="white"/>
<path fill-rule="evenodd" clip-rule="evenodd" d="M4.71046 11.8217C5.06751 11.8217 5.35696 12.0969 5.35696 12.4364V16.3789C5.35696 16.7184 5.06751 16.9936 4.71046 16.9936C4.35341 16.9936 4.06396 16.7184 4.06396 16.3789V12.4364C4.06396 12.0969 4.35341 11.8217 4.71046 11.8217Z" fill="white"/>
<path fill-rule="evenodd" clip-rule="evenodd" d="M33.895 11.8217C34.2521 11.8217 34.5415 12.0969 34.5415 12.4364V16.3789C34.5415 16.7184 34.2521 16.9936 33.895 16.9936C33.538 16.9936 33.2485 16.7184 33.2485 16.3789V12.4364C33.2485 12.0969 33.538 11.8217 33.895 11.8217Z" fill="white"/>
<path fill-rule="evenodd" clip-rule="evenodd" d="M37.8662 11.8217C38.1722 11.8217 38.4203 12.0969 38.4203 12.4364V16.3789C38.4203 16.7184 38.1722 16.9936 37.8662 16.9936C37.5601 16.9936 37.312 16.7184 37.312 16.3789V12.4364C37.312 12.0969 37.5601 11.8217 37.8662 11.8217Z" fill="white"/>
<path fill-rule="evenodd" clip-rule="evenodd" d="M17.2705 11.8217C17.6276 11.8217 17.917 12.0969 17.917 12.4364V16.3789C17.917 16.7184 17.6276 16.9936 17.2705 16.9936C16.9135 16.9936 16.624 16.7184 16.624 16.3789V12.4364C16.624 12.0969 16.9135 11.8217 17.2705 11.8217Z" fill="white"/>
<path fill-rule="evenodd" clip-rule="evenodd" d="M21.3345 11.8217C21.6915 11.8217 21.981 12.0969 21.981 12.4364V16.3789C21.981 16.7184 21.6915 16.9936 21.3345 16.9936C20.9774 16.9936 20.688 16.7184 20.688 16.3789V12.4364C20.688 12.0969 20.9774 11.8217 21.3345 11.8217Z" fill="white"/>
</svg>
